<?xml version="1.0" encoding="UTF-8"?>
<svg id="Capa_1" xmlns="http://www.w3.org/2000/svg" version="1.1" viewBox="0 0 1042.2 1042.2">
  <!-- Generator: Adobe Illustrator 30.0.0, SVG Export Plug-In . SVG Version: 2.1.1 Build 123)  -->
  <defs>
    <style>
      .st0 {
        fill: #f36b1b;
      }
    </style>
  </defs>
  <path class="st0" d="M637.3,712.5l-46.6,46.6v-130.6h-139.2v130.6l-58.1-58.1h-35.2v30.7l104.4,104.5c32.2,32.2,84.5,32.2,116.7,0l104.4-104.5v-103.3h-46.6v84Z"/>
  <path class="st0" d="M413.6,637.3h-84l-46.6-46.6h130.6v-139.2h-130.6l58.1-58.1v-35.2h-30.7l-104.5,104.4c-32.2,32.2-32.2,84.5,0,116.7l104.5,104.4h103.3v-46.6Z"/>
  <path class="st0" d="M404.9,329.6l46.6-46.6v130.6h139.2v-130.6l58.1,58.1h35.2v-30.7l-104.4-104.5c-32.2-32.2-84.5-32.2-116.7,0l-104.4,104.5v103.3h46.6v-84Z"/>
  <path class="st0" d="M731.8,358.3h-103.3v46.6h84l46.6,46.6h-130.6v139.2h130.6l-58.1,58.1v35.2h30.7l104.5-104.4c32.2-32.2,32.2-84.5,0-116.7l-104.5-104.4Z"/>
</svg>